<svg xmlns="http://www.w3.org/2000/svg" xmlns:xlink="http://www.w3.org/1999/xlink" xmlns:lucid="lucid" width="1229.04" height="551.69"><g transform="translate(-344.816490184998 -99.67751334417547)" lucid:page-tab-id="0_0"><path d="M345.82 159.86a6 6 0 0 1 6-6h614.2a6 6 0 0 1 6 6v407.9a6 6 0 0 1-6 6h-614.2a6 6 0 0 1-6-6z" stroke="#000" stroke-width="2" fill="#f4ad6a"/><use xlink:href="#a" transform="matrix(1,0,0,1,377.1272799397803,174.8568110512574) translate(132.40478515625 25.1875)"/><use xlink:href="#b" transform="matrix(1,0,0,1,377.1272799397803,174.8568110512574) translate(198.48388671875 25.1875)"/><use xlink:href="#c" transform="matrix(1,0,0,1,377.1272799397803,174.8568110512574) translate(277.96923828125 25.1875)"/><path d="M986.2 279.33a6 6 0 0 1 6-6h574.66a6 6 0 0 1 6 6v177.24a6 6 0 0 1-6 6H992.2a6 6 0 0 1-6-6z" stroke="#000" stroke-width="2" fill="#dfe3e8"/><use xlink:href="#d" transform="matrix(1,0,0,1,1015.5247485652103,282.7947996914029) translate(145.31005859375 25.1875)"/><use xlink:href="#c" transform="matrix(1,0,0,1,1015.5247485652103,282.7947996914029) translate(230.06396484375 25.1875)"/><path d="M511.35 105.68a6 6 0 0 1 6-6h274.67a6 6 0 0 1 6 6v29.47a6 6 0 0 1-6 6H517.35a6 6 0 0 1-6-6z" fill="none"/><use xlink:href="#e" transform="matrix(1,0,0,1,516.3527269488758,104.67751334417547) translate(35.947265625 25.4580078125)"/><use xlink:href="#f" transform="matrix(1,0,0,1,516.3527269488758,104.67751334417547) translate(149.849609375 25.4580078125)"/><path d="M574.7 225.32a6 6 0 0 1 6-6H953.3a6 6 0 0 1 6 6v202.33a6 6 0 0 1-6 6H580.7a6 6 0 0 1-6-6z" stroke="#000" stroke-width="2" fill="#dedeff"/><use xlink:href="#g" transform="matrix(1,0,0,1,593.9177290386019,230.03244521768744) translate(35.41943359375 25.1875)"/><use xlink:href="#h" transform="matrix(1,0,0,1,593.9177290386019,230.03244521768744) translate(101.49853515625 25.1875)"/><use xlink:href="#i" transform="matrix(1,0,0,1,593.9177290386019,230.03244521768744) translate(188.71533203125 25.1875)"/><path d="M1136.2 229.55a6 6 0 0 1 6-6h274.66a6 6 0 0 1 6 6v29.47a6 6 0 0 1-6 6H1142.2a6 6 0 0 1-6-6z" fill="none"/><use xlink:href="#j" transform="matrix(1,0,0,1,1141.191415231877,228.54809200345306) translate(34.44921875 25.4580078125)"/><use xlink:href="#f" transform="matrix(1,0,0,1,1141.191415231877,228.54809200345306) translate(151.34765625 25.4580078125)"/><path d="M1022.2 342.3a6 6 0 0 1 6-6h502.66a6 6 0 0 1 6 6v82.28a6 6 0 0 1-6 6H1028.2a6 6 0 0 1-6-6z" stroke="#000" stroke-width="2" fill="#cbc2a3"/><use xlink:href="#k" transform="matrix(1,0,0,1,1047.9247485652104,341.0221904650446) translate(92.427734375 51.75)"/><use xlink:href="#l" transform="matrix(1,0,0,1,1047.9247485652104,341.0221904650446) translate(188.6328125 51.75)"/><use xlink:href="#m" transform="matrix(1,0,0,1,1047.9247485652104,341.0221904650446) translate(213.1474609375 51.75)"/><use xlink:href="#n" transform="matrix(1,0,0,1,1047.9247485652104,341.0221904650446) translate(320.4228515625 51.75)"/><path d="M1372.92 537.63c0 34.92-41.8 63.23-93.4 63.23-51.58 0-93.4-28.3-93.4-63.23 0-34.92 41.82-63.23 93.4-63.23 51.6 0 93.4 28.3 93.4 63.23z" stroke="#000" stroke-width="2" fill="#ff80df"/><use xlink:href="#o" transform="matrix(1,0,0,1,1195.467804470843,480.7241342525315) translate(31.59228515625 67.9375)"/><path d="M591.64 286.84a6 6 0 0 1 6-6h157.24a6 6 0 0 1 6 6v125.12a6 6 0 0 1-6 6H597.64a6 6 0 0 1-6-6z" stroke="#000" stroke-width="2" fill="#b8f5ed"/><use xlink:href="#p" transform="matrix(1,0,0,1,600.1016312926021,287.69288150472886) translate(33.2216796875 32.9375)"/><use xlink:href="#q" transform="matrix(1,0,0,1,600.1016312926021,287.69288150472886) translate(32.58056640625 70.68828124999999)"/><use xlink:href="#r" transform="matrix(1,0,0,1,600.1016312926021,287.69288150472886) translate(16.60986328125 108.43906249999999)"/><path d="M773.64 286.84a6 6 0 0 1 6-6h157.24a6 6 0 0 1 6 6v125.12a6 6 0 0 1-6 6H779.64a6 6 0 0 1-6-6z" stroke="#000" stroke-width="2" fill="#b8f5ed"/><g><use xlink:href="#s" transform="matrix(1,0,0,1,782.1019680002079,287.69288150472886) translate(12.0712890625 32.9375)"/><use xlink:href="#t" transform="matrix(1,0,0,1,782.1019680002079,287.69288150472886) translate(94.578125 32.9375)"/><use xlink:href="#q" transform="matrix(1,0,0,1,782.1019680002079,287.69288150472886) translate(32.58056640625 70.68828124999999)"/><use xlink:href="#r" transform="matrix(1,0,0,1,782.1019680002079,287.69288150472886) translate(16.60986328125 108.43906249999999)"/></g><path d="M358.53 298.5a6 6 0 0 1 6-6h192.5a6 6 0 0 1 6 6v185.37a6 6 0 0 1-6 6h-192.5a6 6 0 0 1-6-6z" stroke="#000" stroke-width="2" fill="#dedeff"/><g><use xlink:href="#g" transform="matrix(1,0,0,1,368.75658322482093,302.3542967475136) translate(33.37158203125 25.1875)"/><use xlink:href="#u" transform="matrix(1,0,0,1,368.75658322482093,302.3542967475136) translate(99.45068359375 25.1875)"/></g><path d="M377.22 358.2a6 6 0 0 1 6-6h157.24a6 6 0 0 1 6 6v108a6 6 0 0 1-6 6H383.22a6 6 0 0 1-6-6z" stroke="#000" stroke-width="2" fill="#b8f5ed"/><g><use xlink:href="#v" transform="matrix(1,0,0,1,385.68282053055515,358.20422881839573) translate(24.02392578125 28.5625)"/><use xlink:href="#w" transform="matrix(1,0,0,1,385.68282053055515,358.20422881839573) translate(18.37451171875 66.31328124999999)"/><use xlink:href="#x" transform="matrix(1,0,0,1,385.68282053055515,358.20422881839573) translate(24.16357421875 104.06406249999999)"/></g><path d="M574.7 449.1a6 6 0 0 1 6-6H953.3a6 6 0 0 1 6 6V556.1a6 6 0 0 1-6 6H580.7a6 6 0 0 1-6-6z" stroke="#000" stroke-width="2" fill="#dedeff"/><g><use xlink:href="#g" transform="matrix(1,0,0,1,593.9177290386019,449.0558678809442) translate(35.7431640625 25.1875)"/><use xlink:href="#y" transform="matrix(1,0,0,1,593.9177290386019,449.0558678809442) translate(101.822265625 25.1875)"/><use xlink:href="#z" transform="matrix(1,0,0,1,593.9177290386019,449.0558678809442) translate(202.318359375 25.1875)"/></g><path d="M602.9 494.7a6 6 0 0 1 6-6h316.2a6 6 0 0 1 6 6v44.43a6 6 0 0 1-6 6H608.9a6 6 0 0 1-6-6z" stroke="#000" stroke-width="2" fill="#b8f5ed"/><g><use xlink:href="#A" transform="matrix(1,0,0,1,619.3206212455608,491.52577429926475) translate(44.84423828125 34.75)"/><use xlink:href="#B" transform="matrix(1,0,0,1,619.3206212455608,491.52577429926475) translate(157.97216796875 34.75)"/></g><path d="M345.82 592.48a6 6 0 0 1 6-6h614.2a6 6 0 0 1 6 6v51.9a6 6 0 0 1-6 6h-614.2a6 6 0 0 1-6-6z" stroke="#000" stroke-width="2" fill="#fe7070"/><g><use xlink:href="#C" transform="matrix(1,0,0,1,377.1272799397804,589.6774377154215) translate(122.5341796875 39.6875)"/><use xlink:href="#D" transform="matrix(1,0,0,1,377.1272799397804,589.6774377154215) translate(230.0380859375 39.6875)"/><use xlink:href="#E" transform="matrix(1,0,0,1,377.1272799397804,589.6774377154215) translate(306.9970703125 39.6875)"/><use xlink:href="#F" transform="matrix(1,0,0,1,377.1272799397804,589.6774377154215) translate(399.939453125 39.6875)"/></g><defs><path d="M52 0l541-1490h220L1361 0h-200l-149-416H398L254 0H52zm404-582h497c-103-290-145-390-251-756-108 377-145 460-246 756" id="G"/><path d="M458 0L52-1490h194c108 439 233 855 324 1313 92-459 221-873 331-1313h216c110 438 234 854 330 1307 92-455 216-869 323-1307h196L1558 0h-221l-256-944c-26-95-50-200-73-331-22 122-44 223-73 331L680 0H458" id="H"/><path d="M657 26c-323 0-524-166-541-416h195c15 169 171 246 346 246 202 0 356-106 356-265 5-203-294-238-475-293-239-73-380-191-380-389 0-252 224-419 512-419 294 0 499 171 508 396H992c-17-145-151-228-328-228-193 0-321 102-321 242 0 156 175 211 284 241l149 41c160 44 422 134 422 412 0 244-197 432-541 432" id="I"/><g id="a"><use transform="matrix(0.0126953125,0,0,0.0126953125,0,0)" xlink:href="#G"/><use transform="matrix(0.0126953125,0,0,0.0126953125,16.4658203125,0)" xlink:href="#H"/><use transform="matrix(0.0126953125,0,0,0.0126953125,42.0849609375,0)" xlink:href="#I"/></g><path d="M783 20c-382 0-661-292-661-764 0-473 279-766 661-766 302 0 548 182 601 489h-190c-42-204-217-313-411-313-268 0-476 208-476 590 0 381 209 588 476 588 195 0 369-110 411-313h190c-52 303-296 489-601 489" id="J"/><path d="M338-1490V0H158v-1490h180" id="K"/><path d="M613 24c-304 0-509-231-509-576 0-350 205-580 509-580 305 0 511 230 511 580 0 345-206 576-511 576zm0-161c226 0 329-195 329-415 0-222-103-419-329-419-223 0-326 196-326 419 0 220 103 415 326 415" id="L"/><path d="M537 14c-226 0-379-139-379-422v-710h180v695c0 172 97 275 253 275 160 0 281-109 281-300v-670h181V0H879v-209C806-46 684 14 537 14" id="M"/><path d="M577 24c-279 0-473-224-473-580 0-354 195-576 474-576 218 0 287 134 324 193h14v-551h180V0H922v-173h-20C865-111 790 24 577 24zm27-161c203 0 314-172 314-421 0-247-108-413-314-413-212 0-317 181-317 413 0 235 108 421 317 421" id="N"/><g id="b"><use transform="matrix(0.0126953125,0,0,0.0126953125,0,0)" xlink:href="#J"/><use transform="matrix(0.0126953125,0,0,0.0126953125,18.9921875,0)" xlink:href="#K"/><use transform="matrix(0.0126953125,0,0,0.0126953125,25.2890625,0)" xlink:href="#L"/><use transform="matrix(0.0126953125,0,0,0.0126953125,40.87890625,0)" xlink:href="#M"/><use transform="matrix(0.0126953125,0,0,0.0126953125,56.2529296875,0)" xlink:href="#N"/></g><path d="M180 0v-1490h908v168H370v486h669v168H370v500h727V0H180" id="O"/><path d="M338-670V0H158v-1118h173l1 207c72-158 192-221 342-221 226 0 378 139 378 422V0H872v-695c0-172-96-275-252-275-161 0-282 109-282 300" id="P"/><path d="M481 0L54-1118h197c107 314 236 620 325 951 87-331 217-637 324-951h197L670 0H481" id="Q"/><path d="M158 0v-1118h180V0H158zm91-1301c-68 0-125-53-125-119s57-119 125-119c69 0 126 53 126 119s-57 119-126 119" id="R"/><path d="M158 0v-1118h174v172h12c41-113 157-188 290-188 26 0 70 2 91 3v181c-11-2-60-10-108-10-161 0-279 109-279 260V0H158" id="S"/><path d="M158 0v-1118h175l1 205c55-151 181-225 313-225 147 0 245 90 285 228 53-141 190-228 352-228 194 0 352 125 352 384V0h-181v-749c0-161-105-225-225-225-151 0-243 103-243 244V0H807v-767c0-124-93-207-219-207-131 0-250 92-250 270V0H158" id="T"/><path d="M628 24c-324 0-524-230-524-574 0-343 198-582 503-582 237 0 487 146 487 559v75H286c9 234 145 362 343 362 132 0 231-58 273-172l174 48C1024-91 857 24 628 24zM287-650h624c-17-190-120-322-304-322-192 0-309 151-320 322" id="U"/><path d="M598-1118v154H368v674c0 100 37 144 132 144 23 0 62-6 92-12L629-6c-37 13-88 20-134 20-193 0-307-107-307-290v-688H20v-154h168v-266h180v266h230" id="V"/><g id="c"><use transform="matrix(0.0126953125,0,0,0.0126953125,0,0)" xlink:href="#O"/><use transform="matrix(0.0126953125,0,0,0.0126953125,15.6279296875,0)" xlink:href="#P"/><use transform="matrix(0.0126953125,0,0,0.0126953125,30.6083984375,0)" xlink:href="#Q"/><use transform="matrix(0.0126953125,0,0,0.0126953125,45.220703125,0)" xlink:href="#R"/><use transform="matrix(0.0126953125,0,0,0.0126953125,51.517578125,0)" xlink:href="#S"/><use transform="matrix(0.0126953125,0,0,0.0126953125,60.8740234375,0)" xlink:href="#L"/><use transform="matrix(0.0126953125,0,0,0.0126953125,76.4638671875,0)" xlink:href="#P"/><use transform="matrix(0.0126953125,0,0,0.0126953125,91.8251953125,0)" xlink:href="#T"/><use transform="matrix(0.0126953125,0,0,0.0126953125,114.6005859375,0)" xlink:href="#U"/><use transform="matrix(0.0126953125,0,0,0.0126953125,129.7587890625,0)" xlink:href="#P"/><use transform="matrix(0.0126953125,0,0,0.0126953125,145.1201171875,0)" xlink:href="#V"/></g><path d="M600 0L52-1490h200c166 485 304 806 458 1336 156-533 285-846 449-1336h202L819 0H600" id="W"/><path d="M613 24c-304 0-509-231-509-576 0-350 205-580 509-580 216 0 392 114 453 309l-173 49c-33-115-133-197-280-197-223 0-326 196-326 419 0 220 103 415 326 415 150 0 252-85 285-206l172 49C1010-95 832 24 613 24" id="X"/><g id="d"><use transform="matrix(0.0126953125,0,0,0.0126953125,0,0)" xlink:href="#W"/><use transform="matrix(0.0126953125,0,0,0.0126953125,16.6181640625,0)" xlink:href="#U"/><use transform="matrix(0.0126953125,0,0,0.0126953125,31.7763671875,0)" xlink:href="#S"/><use transform="matrix(0.0126953125,0,0,0.0126953125,41.1328125,0)" xlink:href="#X"/><use transform="matrix(0.0126953125,0,0,0.0126953125,55.986328125,0)" xlink:href="#U"/><use transform="matrix(0.0126953125,0,0,0.0126953125,71.14453125,0)" xlink:href="#K"/></g><path d="M180 0v-1490h528c311 0 458 177 458 395 0 191-114 278-244 313v14c139 9 302 137 302 371 0 225-148 397-499 397H180zm190-168h350c232 0 321-102 321-231 0-149-120-277-311-277H370v508zm0-668h328c160 0 286-101 286-255 0-129-87-231-280-231H370v486" id="Y"/><path d="M471 26C259 26 90-98 90-318c0-256 228-303 435-329 202-27 287-16 287-108 0-139-79-219-234-219-161 0-248 86-283 164l-173-57c86-203 278-265 451-265 150 0 419 46 419 395V0H815v-152h-12C765-73 660 26 471 26zm31-159c199 0 310-134 310-271v-155c-30 35-226 55-295 64-131 17-246 59-246 186 0 116 97 176 231 176" id="Z"/><path d="M158 0v-1490h180v865h22l478-493h223L593-638 1096 0H865L456-523 338-412V0H158" id="aa"/><g id="e"><use transform="matrix(0.0126953125,0,0,0.0126953125,0,0)" xlink:href="#Y"/><use transform="matrix(0.0126953125,0,0,0.0126953125,17.01171875,0)" xlink:href="#Z"/><use transform="matrix(0.0126953125,0,0,0.0126953125,31.611328125,0)" xlink:href="#X"/><use transform="matrix(0.0126953125,0,0,0.0126953125,46.46484375,0)" xlink:href="#aa"/><use transform="matrix(0.0126953125,0,0,0.0126953125,60.150390625,0)" xlink:href="#U"/><use transform="matrix(0.0126953125,0,0,0.0126953125,75.30859375,0)" xlink:href="#P"/><use transform="matrix(0.0126953125,0,0,0.0126953125,90.669921875,0)" xlink:href="#N"/></g><path d="M140 405l46-156c120 36 205 19 263-150l32-93L54-1118h197c107 313 237 620 324 950 87-331 219-637 326-950h196L606 167c-68 178-176 259-334 259-64 0-113-12-132-21" id="ab"/><path d="M538 24C308 24 148-78 108-271l171-41c32 123 123 178 257 178 156 0 256-77 256-169 0-77-54-128-164-154l-186-44c-203-48-300-148-300-305 0-192 176-326 414-326 230 0 351 112 402 269l-163 42c-31-80-94-158-238-158-133 0-233 69-233 162 0 83 57 129 188 160l169 40c203 48 298 149 298 302 0 196-179 339-441 339" id="ac"/><g id="f"><use transform="matrix(0.0126953125,0,0,0.0126953125,0,0)" xlink:href="#I"/><use transform="matrix(0.0126953125,0,0,0.0126953125,16.681640625,0)" xlink:href="#ab"/><use transform="matrix(0.0126953125,0,0,0.0126953125,31.2939453125,0)" xlink:href="#ac"/><use transform="matrix(0.0126953125,0,0,0.0126953125,45.017578125,0)" xlink:href="#V"/><use transform="matrix(0.0126953125,0,0,0.0126953125,53.26953125,0)" xlink:href="#U"/><use transform="matrix(0.0126953125,0,0,0.0126953125,68.427734375,0)" xlink:href="#T"/></g><g id="g"><use transform="matrix(0.0126953125,0,0,0.0126953125,0,0)" xlink:href="#G"/><use transform="matrix(0.0126953125,0,0,0.0126953125,16.4658203125,0)" xlink:href="#H"/><use transform="matrix(0.0126953125,0,0,0.0126953125,42.0849609375,0)" xlink:href="#I"/></g><g id="h"><use transform="matrix(0.0126953125,0,0,0.0126953125,0,0)" xlink:href="#O"/><use transform="matrix(0.0126953125,0,0,0.0126953125,15.6279296875,0)" xlink:href="#K"/><use transform="matrix(0.0126953125,0,0,0.0126953125,21.9248046875,0)" xlink:href="#Z"/><use transform="matrix(0.0126953125,0,0,0.0126953125,36.5244140625,0)" xlink:href="#ac"/><use transform="matrix(0.0126953125,0,0,0.0126953125,50.248046875,0)" xlink:href="#V"/><use transform="matrix(0.0126953125,0,0,0.0126953125,58.75390625,0)" xlink:href="#R"/><use transform="matrix(0.0126953125,0,0,0.0126953125,65.05078125,0)" xlink:href="#X"/></g><g id="i"><use transform="matrix(0.0126953125,0,0,0.0126953125,0,0)" xlink:href="#Y"/><use transform="matrix(0.0126953125,0,0,0.0126953125,17.01171875,0)" xlink:href="#U"/><use transform="matrix(0.0126953125,0,0,0.0126953125,32.423828125,0)" xlink:href="#Z"/><use transform="matrix(0.0126953125,0,0,0.0126953125,47.0234375,0)" xlink:href="#P"/><use transform="matrix(0.0126953125,0,0,0.0126953125,62.384765625,0)" xlink:href="#I"/><use transform="matrix(0.0126953125,0,0,0.0126953125,79.06640625,0)" xlink:href="#V"/><use transform="matrix(0.0126953125,0,0,0.0126953125,87.69921875,0)" xlink:href="#Z"/><use transform="matrix(0.0126953125,0,0,0.0126953125,102.298828125,0)" xlink:href="#K"/><use transform="matrix(0.0126953125,0,0,0.0126953125,108.595703125,0)" xlink:href="#aa"/></g><path d="M180 0v-1490h901v168H370v510h643v168H370V0H180" id="ad"/><g id="j"><use transform="matrix(0.0126953125,0,0,0.0126953125,0,0)" xlink:href="#ad"/><use transform="matrix(0.0126953125,0,0,0.0126953125,14.5869140625,0)" xlink:href="#S"/><use transform="matrix(0.0126953125,0,0,0.0126953125,23.943359375,0)" xlink:href="#L"/><use transform="matrix(0.0126953125,0,0,0.0126953125,39.533203125,0)" xlink:href="#P"/><use transform="matrix(0.0126953125,0,0,0.0126953125,54.89453125,0)" xlink:href="#V"/><use transform="matrix(0.0126953125,0,0,0.0126953125,63.146484375,0)" xlink:href="#U"/><use transform="matrix(0.0126953125,0,0,0.0126953125,78.3046875,0)" xlink:href="#P"/><use transform="matrix(0.0126953125,0,0,0.0126953125,93.666015625,0)" xlink:href="#N"/></g><path d="M180 0v-1490h224l606 953c40 63 108 177 176 312-27-437-7-821-13-1265h190V0h-226C860-448 622-778 356-1262c27 476 11 792 15 1262H180" id="ae"/><path d="M65 0l393-574-370-544h210c88 136 192 297 267 435 67-142 176-302 264-435h206L661-564 1053 0H844c-94-144-206-310-287-458C484-308 366-142 273 0H65" id="af"/><path d="M545 20c-263 0-445-160-445-446v-80h190v80c0 182 102 279 255 279 152 0 254-97 254-279v-1064h190v1064c0 286-181 446-444 446" id="ag"/><g id="k"><use transform="matrix(0.0126953125,0,0,0.0126953125,0,0)" xlink:href="#ae"/><use transform="matrix(0.0126953125,0,0,0.0126953125,19.5888671875,0)" xlink:href="#U"/><use transform="matrix(0.0126953125,0,0,0.0126953125,34.1630859375,0)" xlink:href="#af"/><use transform="matrix(0.0126953125,0,0,0.0126953125,48.8642578125,0)" xlink:href="#V"/><use transform="matrix(0.0126953125,0,0,0.0126953125,57.3701171875,0)" xlink:href="#ag"/><use transform="matrix(0.0126953125,0,0,0.0126953125,72.2109375,0)" xlink:href="#I"/></g><path d="M593-100v-404H195v-159h398v-403h169v403h398v159H762v404H593" id="ah"/><use transform="matrix(0.0126953125,0,0,0.0126953125,0,0)" xlink:href="#ah" id="l"/><path d="M130 0v-134l666-991c45-67 96-135 147-202-269 9-546 3-821 5v-168h1036v136L502-379c-49 72-103 145-157 216 268-9 546-3 821-5V0H130" id="ai"/><g id="m"><use transform="matrix(0.0126953125,0,0,0.0126953125,0,0)" xlink:href="#ai"/><use transform="matrix(0.0126953125,0,0,0.0126953125,16.3515625,0)" xlink:href="#M"/><use transform="matrix(0.0126953125,0,0,0.0126953125,31.7255859375,0)" xlink:href="#ac"/><use transform="matrix(0.0126953125,0,0,0.0126953125,45.44921875,0)" xlink:href="#V"/><use transform="matrix(0.0126953125,0,0,0.0126953125,54.08203125,0)" xlink:href="#Z"/><use transform="matrix(0.0126953125,0,0,0.0126953125,68.681640625,0)" xlink:href="#P"/><use transform="matrix(0.0126953125,0,0,0.0126953125,84.04296875,0)" xlink:href="#N"/></g><path d="M180 0v-1490h510c348 0 508 209 508 474 0 266-160 477-507 477H370V0H180zm190-706h312c236 0 327-133 327-310 0-176-91-307-329-307H370v617" id="aj"/><g id="n"><use transform="matrix(0.0126953125,0,0,0.0126953125,0,0)" xlink:href="#G"/><use transform="matrix(0.0126953125,0,0,0.0126953125,17.9384765625,0)" xlink:href="#aj"/><use transform="matrix(0.0126953125,0,0,0.0126953125,34.5439453125,0)" xlink:href="#aj"/></g><path d="M677 24c-213 0-288-135-325-197h-20V0H158v-1490h180v551h14c37-59 106-193 324-193 279 0 474 222 474 576 0 356-194 580-473 580zm-27-161c209 0 317-186 317-421 0-232-105-413-317-413-206 0-314 166-314 413 0 249 111 421 314 421" id="ak"/><g id="o"><use transform="matrix(0.0126953125,0,0,0.0126953125,0,0)" xlink:href="#ad"/><use transform="matrix(0.0126953125,0,0,0.0126953125,15.3486328125,0)" xlink:href="#R"/><use transform="matrix(0.0126953125,0,0,0.0126953125,21.6455078125,0)" xlink:href="#S"/><use transform="matrix(0.0126953125,0,0,0.0126953125,31.001953125,0)" xlink:href="#U"/><use transform="matrix(0.0126953125,0,0,0.0126953125,46.16015625,0)" xlink:href="#ak"/><use transform="matrix(0.0126953125,0,0,0.0126953125,62.333984375,0)" xlink:href="#Z"/><use transform="matrix(0.0126953125,0,0,0.0126953125,76.93359375,0)" xlink:href="#ac"/><use transform="matrix(0.0126953125,0,0,0.0126953125,90.6572265625,0)" xlink:href="#U"/></g><path d="M645 0H180v-1490h484c435 0 692 280 692 742 0 466-257 748-711 748zM370-168h263c363 0 539-218 539-580 0-358-176-574-521-574H370v1154" id="al"/><path d="M157-1118h181V80c1 225-123 350-364 338V252c126 9 184-48 183-172v-1198zm91-183c-68 0-125-53-125-119s57-119 125-119c69 0 126 53 126 119s-57 119-126 119" id="am"/><path d="M611 442c-248 0-391-105-460-228l146-94c47 65 117 165 314 165 178 0 307-82 307-266v-224h-17C863-141 792-18 576-18c-268 0-472-195-472-546 0-346 197-568 476-568 216 0 288 133 326 193h17v-179h175V29c0 289-215 413-487 413zm-5-620c203 0 314-146 314-390 0-237-108-403-314-403-213 0-319 180-319 403 0 230 109 390 319 390" id="an"/><g id="p"><use transform="matrix(0.0126953125,0,0,0.0126953125,0,0)" xlink:href="#al"/><use transform="matrix(0.0126953125,0,0,0.0126953125,18.763671875,0)" xlink:href="#am"/><use transform="matrix(0.0126953125,0,0,0.0126953125,25.060546875,0)" xlink:href="#Z"/><use transform="matrix(0.0126953125,0,0,0.0126953125,39.66015625,0)" xlink:href="#P"/><use transform="matrix(0.0126953125,0,0,0.0126953125,55.021484375,0)" xlink:href="#an"/><use transform="matrix(0.0126953125,0,0,0.0126953125,70.966796875,0)" xlink:href="#L"/></g><g id="q"><use transform="matrix(0.0126953125,0,0,0.0126953125,0,0)" xlink:href="#al"/><use transform="matrix(0.0126953125,0,0,0.0126953125,18.763671875,0)" xlink:href="#L"/><use transform="matrix(0.0126953125,0,0,0.0126953125,34.353515625,0)" xlink:href="#X"/><use transform="matrix(0.0126953125,0,0,0.0126953125,49.20703125,0)" xlink:href="#aa"/><use transform="matrix(0.0126953125,0,0,0.0126953125,62.892578125,0)" xlink:href="#U"/><use transform="matrix(0.0126953125,0,0,0.0126953125,78.05078125,0)" xlink:href="#S"/></g><g id="r"><use transform="matrix(0.0126953125,0,0,0.0126953125,0,0)" xlink:href="#J"/><use transform="matrix(0.0126953125,0,0,0.0126953125,18.9921875,0)" xlink:href="#L"/><use transform="matrix(0.0126953125,0,0,0.0126953125,34.58203125,0)" xlink:href="#P"/><use transform="matrix(0.0126953125,0,0,0.0126953125,49.943359375,0)" xlink:href="#V"/><use transform="matrix(0.0126953125,0,0,0.0126953125,58.576171875,0)" xlink:href="#Z"/><use transform="matrix(0.0126953125,0,0,0.0126953125,73.17578125,0)" xlink:href="#R"/><use transform="matrix(0.0126953125,0,0,0.0126953125,79.47265625,0)" xlink:href="#P"/><use transform="matrix(0.0126953125,0,0,0.0126953125,94.833984375,0)" xlink:href="#U"/><use transform="matrix(0.0126953125,0,0,0.0126953125,109.9921875,0)" xlink:href="#S"/></g><path d="M180 0v-1490h510c348 0 508 194 508 460 0 198-88 351-276 417L1256 0h-220L726-579c-117 2-238 0-356 1V0H180zm190-747h312c235 0 327-108 327-283 0-177-92-293-329-293H370v576" id="ao"/><path d="M784 20c-382 0-662-292-662-764 0-473 280-766 662-766s660 293 660 766c0 472-278 764-660 764zm0-176c266 0 475-207 475-588 0-383-209-590-475-590-268 0-477 208-477 590 0 380 209 588 477 588" id="ap"/><g id="s"><use transform="matrix(0.0126953125,0,0,0.0126953125,0,0)" xlink:href="#J"/><use transform="matrix(0.0126953125,0,0,0.0126953125,18.9921875,0)" xlink:href="#ao"/><use transform="matrix(0.0126953125,0,0,0.0126953125,35.724609375,0)" xlink:href="#ap"/><use transform="matrix(0.0126953125,0,0,0.0126953125,55.60546875,0)" xlink:href="#ae"/></g><g id="t"><use transform="matrix(0.0126953125,0,0,0.0126953125,0,0)" xlink:href="#ag"/><use transform="matrix(0.0126953125,0,0,0.0126953125,14.8408203125,0)" xlink:href="#L"/><use transform="matrix(0.0126953125,0,0,0.0126953125,30.4306640625,0)" xlink:href="#ak"/></g><g id="u"><use transform="matrix(0.0126953125,0,0,0.0126953125,0,0)" xlink:href="#ao"/><use transform="matrix(0.0126953125,0,0,0.0126953125,16.732421875,0)" xlink:href="#al"/><use transform="matrix(0.0126953125,0,0,0.0126953125,35.49609375,0)" xlink:href="#I"/></g><path d="M180 0v-1490h270l367 940c28 72 75 218 110 339 35-117 81-264 110-339l362-940h271V0h-187c2-448-5-837 7-1287-157 497-311 829-483 1287H842C666-458 514-784 354-1284c12 438 5 843 7 1284H180" id="aq"/><g id="v"><use transform="matrix(0.0126953125,0,0,0.0126953125,0,0)" xlink:href="#aq"/><use transform="matrix(0.0126953125,0,0,0.0126953125,23.486328125,0)" xlink:href="#Z"/><use transform="matrix(0.0126953125,0,0,0.0126953125,38.0859375,0)" xlink:href="#S"/><use transform="matrix(0.0126953125,0,0,0.0126953125,48.2802734375,0)" xlink:href="#R"/><use transform="matrix(0.0126953125,0,0,0.0126953125,54.5771484375,0)" xlink:href="#Z"/><use transform="matrix(0.0126953125,0,0,0.0126953125,69.1767578125,0)" xlink:href="#al"/><use transform="matrix(0.0126953125,0,0,0.0126953125,87.9404296875,0)" xlink:href="#Y"/></g><g id="w"><use transform="matrix(0.0126953125,0,0,0.0126953125,0,0)" xlink:href="#al"/><use transform="matrix(0.0126953125,0,0,0.0126953125,18.763671875,0)" xlink:href="#Z"/><use transform="matrix(0.0126953125,0,0,0.0126953125,33.36328125,0)" xlink:href="#V"/><use transform="matrix(0.0126953125,0,0,0.0126953125,41.99609375,0)" xlink:href="#Z"/><use transform="matrix(0.0126953125,0,0,0.0126953125,56.595703125,0)" xlink:href="#ak"/><use transform="matrix(0.0126953125,0,0,0.0126953125,72.76953125,0)" xlink:href="#Z"/><use transform="matrix(0.0126953125,0,0,0.0126953125,87.369140625,0)" xlink:href="#ac"/><use transform="matrix(0.0126953125,0,0,0.0126953125,101.0927734375,0)" xlink:href="#U"/></g><path d="M370-1490V0H180v-1490h190" id="ar"/><g id="x"><use transform="matrix(0.0126953125,0,0,0.0126953125,0,0)" xlink:href="#ar"/><use transform="matrix(0.0126953125,0,0,0.0126953125,6.982421875,0)" xlink:href="#P"/><use transform="matrix(0.0126953125,0,0,0.0126953125,22.34375,0)" xlink:href="#ac"/><use transform="matrix(0.0126953125,0,0,0.0126953125,36.0673828125,0)" xlink:href="#V"/><use transform="matrix(0.0126953125,0,0,0.0126953125,44.7001953125,0)" xlink:href="#Z"/><use transform="matrix(0.0126953125,0,0,0.0126953125,59.2998046875,0)" xlink:href="#P"/><use transform="matrix(0.0126953125,0,0,0.0126953125,74.6611328125,0)" xlink:href="#X"/><use transform="matrix(0.0126953125,0,0,0.0126953125,89.5146484375,0)" xlink:href="#U"/></g><g id="y"><use transform="matrix(0.0126953125,0,0,0.0126953125,0,0)" xlink:href="#I"/><use transform="matrix(0.0126953125,0,0,0.0126953125,16.681640625,0)" xlink:href="#U"/><use transform="matrix(0.0126953125,0,0,0.0126953125,31.83984375,0)" xlink:href="#X"/><use transform="matrix(0.0126953125,0,0,0.0126953125,46.693359375,0)" xlink:href="#S"/><use transform="matrix(0.0126953125,0,0,0.0126953125,56.0498046875,0)" xlink:href="#U"/><use transform="matrix(0.0126953125,0,0,0.0126953125,71.2080078125,0)" xlink:href="#V"/><use transform="matrix(0.0126953125,0,0,0.0126953125,79.4599609375,0)" xlink:href="#ac"/></g><g id="z"><use transform="matrix(0.0126953125,0,0,0.0126953125,0,0)" xlink:href="#aq"/><use transform="matrix(0.0126953125,0,0,0.0126953125,23.486328125,0)" xlink:href="#Z"/><use transform="matrix(0.0126953125,0,0,0.0126953125,38.0859375,0)" xlink:href="#P"/><use transform="matrix(0.0126953125,0,0,0.0126953125,53.447265625,0)" xlink:href="#Z"/><use transform="matrix(0.0126953125,0,0,0.0126953125,68.046875,0)" xlink:href="#an"/><use transform="matrix(0.0126953125,0,0,0.0126953125,83.9921875,0)" xlink:href="#U"/><use transform="matrix(0.0126953125,0,0,0.0126953125,99.150390625,0)" xlink:href="#S"/></g><g id="A"><use transform="matrix(0.0126953125,0,0,0.0126953125,0,0)" xlink:href="#ad"/><use transform="matrix(0.0126953125,0,0,0.0126953125,15.3486328125,0)" xlink:href="#R"/><use transform="matrix(0.0126953125,0,0,0.0126953125,21.6455078125,0)" xlink:href="#S"/><use transform="matrix(0.0126953125,0,0,0.0126953125,31.001953125,0)" xlink:href="#U"/><use transform="matrix(0.0126953125,0,0,0.0126953125,46.16015625,0)" xlink:href="#ak"/><use transform="matrix(0.0126953125,0,0,0.0126953125,62.333984375,0)" xlink:href="#Z"/><use transform="matrix(0.0126953125,0,0,0.0126953125,76.93359375,0)" xlink:href="#ac"/><use transform="matrix(0.0126953125,0,0,0.0126953125,90.6572265625,0)" xlink:href="#U"/></g><g id="B"><use transform="matrix(0.0126953125,0,0,0.0126953125,0,0)" xlink:href="#I"/><use transform="matrix(0.0126953125,0,0,0.0126953125,16.681640625,0)" xlink:href="#U"/><use transform="matrix(0.0126953125,0,0,0.0126953125,31.83984375,0)" xlink:href="#X"/><use transform="matrix(0.0126953125,0,0,0.0126953125,46.693359375,0)" xlink:href="#S"/><use transform="matrix(0.0126953125,0,0,0.0126953125,56.0498046875,0)" xlink:href="#U"/><use transform="matrix(0.0126953125,0,0,0.0126953125,71.2080078125,0)" xlink:href="#V"/><use transform="matrix(0.0126953125,0,0,0.0126953125,79.4599609375,0)" xlink:href="#ac"/></g><g id="C"><use transform="matrix(0.0126953125,0,0,0.0126953125,0,0)" xlink:href="#O"/><use transform="matrix(0.0126953125,0,0,0.0126953125,15.6279296875,0)" xlink:href="#af"/><use transform="matrix(0.0126953125,0,0,0.0126953125,30.3291015625,0)" xlink:href="#V"/><use transform="matrix(0.0126953125,0,0,0.0126953125,38.5810546875,0)" xlink:href="#U"/><use transform="matrix(0.0126953125,0,0,0.0126953125,53.7392578125,0)" xlink:href="#S"/><use transform="matrix(0.0126953125,0,0,0.0126953125,63.93359375,0)" xlink:href="#P"/><use transform="matrix(0.0126953125,0,0,0.0126953125,79.294921875,0)" xlink:href="#Z"/><use transform="matrix(0.0126953125,0,0,0.0126953125,93.89453125,0)" xlink:href="#K"/></g><g id="D"><use transform="matrix(0.0126953125,0,0,0.0126953125,0,0)" xlink:href="#I"/><use transform="matrix(0.0126953125,0,0,0.0126953125,16.681640625,0)" xlink:href="#V"/><use transform="matrix(0.0126953125,0,0,0.0126953125,24.93359375,0)" xlink:href="#L"/><use transform="matrix(0.0126953125,0,0,0.0126953125,40.5234375,0)" xlink:href="#X"/><use transform="matrix(0.0126953125,0,0,0.0126953125,55.376953125,0)" xlink:href="#aa"/></g><g id="E"><use transform="matrix(0.0126953125,0,0,0.0126953125,0,0)" xlink:href="#aq"/><use transform="matrix(0.0126953125,0,0,0.0126953125,23.486328125,0)" xlink:href="#Z"/><use transform="matrix(0.0126953125,0,0,0.0126953125,38.0859375,0)" xlink:href="#S"/><use transform="matrix(0.0126953125,0,0,0.0126953125,48.2802734375,0)" xlink:href="#aa"/><use transform="matrix(0.0126953125,0,0,0.0126953125,61.9658203125,0)" xlink:href="#U"/><use transform="matrix(0.0126953125,0,0,0.0126953125,77.1240234375,0)" xlink:href="#V"/></g><g id="F"><use transform="matrix(0.0126953125,0,0,0.0126953125,0,0)" xlink:href="#G"/><use transform="matrix(0.0126953125,0,0,0.0126953125,17.9384765625,0)" xlink:href="#aj"/><use transform="matrix(0.0126953125,0,0,0.0126953125,34.5439453125,0)" xlink:href="#ar"/></g></defs></g></svg>