<svg xmlns="http://www.w3.org/2000/svg" xmlns:xlink="http://www.w3.org/1999/xlink" xmlns:lucid="lucid" width="1355.59" height="655.04"><g transform="translate(-182.24139140190263 -167.419904513734)" lucid:page-tab-id="0_0"><path d="M218.67 225.56a6 6 0 0 1 6-6h586.66a6 6 0 0 1 6 6v422.66a6 6 0 0 1-6 6H224.67a6 6 0 0 1-6-6z" stroke="#000" stroke-width="2" fill="#f4ad6a"/><use xlink:href="#a" transform="matrix(1,0,0,1,248.59999999996097,241.2888888888371) translate(119.90478515625 25.1875)"/><use xlink:href="#b" transform="matrix(1,0,0,1,248.59999999996097,241.2888888888371) translate(185.98388671875 25.1875)"/><use xlink:href="#c" transform="matrix(1,0,0,1,248.59999999996097,241.2888888888371) translate(265.46923828125 25.1875)"/><path d="M229.7 303.56a6 6 0 0 1 6-6h562.9a6 6 0 0 1 6 6v296a6 6 0 0 1-6 6H235.67a6 6 0 0 1-6-6z" stroke="#000" stroke-width="2" fill="#6db1ff"/><use xlink:href="#d" transform="matrix(1,0,0,1,258.43070382000093,312.9555555555038) translate(64.533203125 25.1875)"/><use xlink:href="#e" transform="matrix(1,0,0,1,258.43070382000093,312.9555555555038) translate(211.443359375 25.1875)"/><use xlink:href="#c" transform="matrix(1,0,0,1,258.43070382000093,312.9555555555038) translate(299.8408203125 25.1875)"/><path d="M950.17 348.27a6 6 0 0 1 6-6h574.66a6 6 0 0 1 6 6V525.5a6 6 0 0 1-6 6H956.17a6 6 0 0 1-6-6z" stroke="#000" stroke-width="2" fill="#dfe3e8"/><use xlink:href="#f" transform="matrix(1,0,0,1,979.4989652350052,351.73175943577627) translate(145.31005859375 25.1875)"/><use xlink:href="#c" transform="matrix(1,0,0,1,979.4989652350052,351.73175943577627) translate(230.06396484375 25.1875)"/><path d="M374.67 173.42a6 6 0 0 1 6-6h274.66a6 6 0 0 1 6 6v29.47a6 6 0 0 1-6 6H380.67a6 6 0 0 1-6-6z" fill="none"/><use xlink:href="#g" transform="matrix(1,0,0,1,379.66666666662763,172.419904513734) translate(35.947265625 25.4580078125)"/><use xlink:href="#h" transform="matrix(1,0,0,1,379.66666666662763,172.419904513734) translate(149.849609375 25.4580078125)"/><path d="M609.8 377.07a6 6 0 0 1 6-6h153.6a6 6 0 0 1 6 6v188a6 6 0 0 1-6 6H615.8a6 6 0 0 1-6-6z" stroke="#000" stroke-width="2" fill="#979ea8"/><use xlink:href="#i" transform="matrix(1,0,0,1,618.0700665913967,381.0669904888209) translate(10.5712890625 81.4375)"/><use xlink:href="#j" transform="matrix(1,0,0,1,618.0700665913967,381.0669904888209) translate(93.078125 81.4375)"/><use xlink:href="#k" transform="matrix(1,0,0,1,618.0700665913967,381.0669904888209) translate(15.10986328125 119.18828124999999)"/><path d="M218.67 702.13a6 6 0 0 1 6-6h586.66a6 6 0 0 1 6 6v113.33a6 6 0 0 1-6 6H224.67a6 6 0 0 1-6-6z" stroke="#000" stroke-width="2" fill="#dedeff"/><use xlink:href="#l" transform="matrix(1,0,0,1,248.59999999996097,702.3940395884334) translate(110.0341796875 67.5625)"/><use xlink:href="#m" transform="matrix(1,0,0,1,248.59999999996097,702.3940395884334) translate(217.5380859375 67.5625)"/><use xlink:href="#n" transform="matrix(1,0,0,1,248.59999999996097,702.3940395884334) translate(294.4970703125 67.5625)"/><use xlink:href="#o" transform="matrix(1,0,0,1,248.59999999996097,702.3940395884334) translate(387.439453125 67.5625)"/><path d="M701.35 664.5H531.4l-1.48.1-1.32.32-1.25.52-1.16.7-1.04.88-.88 1.04-.7 1.15-.53 1.27-.32 1.3-.12 1.6-5.92-.47.16-2.05.53-2.23.88-2.12 1.2-1.95 1.5-1.75 1.73-1.48 1.96-1.2 2.1-.88 2.24-.53 2.17-.17h170.2zm81.27-196.17l3.12.75 2.97 1.24 2.75 1.67 2.44 2.08 2.08 2.44 1.68 2.75 1.23 2.97.74 3.12.25 3.1v149.17l-.34 4.1-1 4.12-1.6 3.9-2.22 3.62-2.75 3.22-3.23 2.74-3.6 2.2-3.92 1.63-4.12 1-4.1.32h-48.7v-5.97h48.46l3.4-.26 3.2-.77 3.05-1.26 2.8-1.73 2.52-2.13 2.14-2.5 1.74-2.82 1.26-3.05.77-3.2.26-3.4V488.67l-.18-2.4-.53-2.2-.88-2.1-1.2-1.95-1.47-1.73-1.73-1.48-1.94-1.2-2.1-.86-2.22-.53-2.5-.2.47-5.93z" stroke="#000" stroke-width=".05"/><path d="M779.5 474.04h-3.1v-5.95h3.1z"/><path stroke="#000" stroke-width=".05"/><path d="M519.64 689.13l-7.5-13h15z"/><path d="M519.64 695.08L507 673.16h25.3zm-2.35-15.97l2.34 4.08 2.35-4.07z" stroke="#000" stroke-width=".05"/><use xlink:href="#p" transform="matrix(1,0,0,1,701.3495543410422,629.2440877280806) translate(0 51.66666666666667)"/><path d="M1100.17 298.5a6 6 0 0 1 6-6h274.66a6 6 0 0 1 6 6v29.45a6 6 0 0 1-6 6h-274.66a6 6 0 0 1-6-6z" fill="none"/><use xlink:href="#q" transform="matrix(1,0,0,1,1105.165631901672,297.4850517478265) translate(34.44921875 25.4580078125)"/><use xlink:href="#h" transform="matrix(1,0,0,1,1105.165631901672,297.4850517478265) translate(151.34765625 25.4580078125)"/><path d="M986.17 411.25a6 6 0 0 1 6-6h502.66a6 6 0 0 1 6 6v82.26a6 6 0 0 1-6 6H992.17a6 6 0 0 1-6-6z" stroke="#000" stroke-width="2" fill="#b8f5ed"/><use xlink:href="#r" transform="matrix(1,0,0,1,1011.8989652350052,409.959150209418) translate(92.427734375 51.75)"/><use xlink:href="#s" transform="matrix(1,0,0,1,1011.8989652350052,409.959150209418) translate(188.6328125 51.75)"/><use xlink:href="#t" transform="matrix(1,0,0,1,1011.8989652350052,409.959150209418) translate(213.1474609375 51.75)"/><use xlink:href="#u" transform="matrix(1,0,0,1,1011.8989652350052,409.959150209418) translate(320.4228515625 51.75)"/><path d="M865.72 439.86h-25.4v-5.95h25.4zm80.45 0h-44.4v-5.95h44.4z" stroke="#000" stroke-width=".05"/><path d="M949.17 439.86h-3.08v-5.95h3.07z"/><path stroke="#000" stroke-width=".05"/><path d="M837.32 444.4l-13-7.5 13-7.5z"/><path d="M840.3 449.54l-21.92-12.65 21.92-12.66zm-10.02-12.65l4.07 2.34v-4.7z" stroke="#000" stroke-width=".05"/><use xlink:href="#v" transform="matrix(1,0,0,1,893.8700194539023,412.6896701388372) translate(0 38.75)"/><use xlink:href="#w" transform="matrix(1,0,0,1,865.715628617483,404.6232638888372) translate(0 51.66666666666667)"/><path d="M431.3 377.07a6 6 0 0 1 6-6h153.63a6 6 0 0 1 6 6v188a6 6 0 0 1-6 6H437.3a6 6 0 0 1-6-6z" stroke="#000" stroke-width="2" fill="#fcce14"/><use xlink:href="#x" transform="matrix(1,0,0,1,439.58528368785136,381.0669904888209) translate(31.7216796875 42.0625)"/><use xlink:href="#y" transform="matrix(1,0,0,1,439.58528368785136,381.0669904888209) translate(40.1767578125 79.81328124999999)"/><use xlink:href="#z" transform="matrix(1,0,0,1,439.58528368785136,381.0669904888209) translate(8.85107421875 117.56406249999999)"/><use xlink:href="#A" transform="matrix(1,0,0,1,439.58528368785136,381.0669904888209) translate(89.99951171875 117.56406249999999)"/><use xlink:href="#k" transform="matrix(1,0,0,1,439.58528368785136,381.0669904888209) translate(15.10986328125 155.31484375)"/><path d="M252.82 378.98a6 6 0 0 1 6-6h153.62a6 6 0 0 1 6 6v188a6 6 0 0 1-6 6H258.82a6 6 0 0 1-6-6z" stroke="#000" stroke-width="2" fill="#18d7bd"/><use xlink:href="#B" transform="matrix(1,0,0,1,261.1005007843062,382.98429577626956) translate(22.52392578125 81.4375)"/><use xlink:href="#C" transform="matrix(1,0,0,1,261.1005007843062,382.98429577626956) translate(15.10986328125 119.18828124999999)"/><path d="M1336.9 668.8c0 34.9-41.82 63.22-93.4 63.22-51.58 0-93.4-28.3-93.4-63.24 0-34.92 41.82-63.22 93.4-63.22 51.58 0 93.4 28.3 93.4 63.23z" stroke="#000" stroke-width="2" fill="#eca500"/><g><use xlink:href="#D" transform="matrix(1,0,0,1,1159.4420211406382,611.878515101862) translate(31.59228515625 67.9375)"/></g><path d="M1243.5 535.5v47.07" stroke="#000" stroke-width="6" fill="none"/><path d="M1246.47 535.6h-5.95v-3.1h5.95z" stroke="#000" stroke-width=".05"/><path d="M1243.5 598.56l-7.5-13h15z" stroke="#000" stroke-width="6"/><g><use xlink:href="#E" transform="matrix(1,0,0,1,1258.9989652350052,531.7343749999999) translate(0 51.66666666666667)"/></g><path d="M338.6 599.68l.27 3.4.77 3.22 1.27 3.04 1.73 2.8 2.14 2.52 2.5 2.14 2.82 1.73 3.04 1.26 3.2.76 3.4.27H498.3v5.95H359.52l-4.1-.33-4.13-1-3.92-1.6-3.6-2.22-3.23-2.75-2.75-3.22-2.2-3.6-1.63-3.92-1-4.12-.3-4.1v-3.94h5.94zm356.98.24l-.33 4.1-1 4.12-1.6 3.9-2.22 3.62-2.75 3.22-3.22 2.75-3.6 2.22-3.92 1.62-4.12.98-4.1.33H531.87v-5.95h136.6l3.42-.27 3.2-.77 3.04-1.27 2.8-1.73 2.52-2.14 2.14-2.5 1.73-2.82 1.26-3.04.76-3.2.27-3.42v-24.6h5.95z" stroke="#000" stroke-width=".05"/><path d="M695.58 575.14h-5.95v-3.07h5.95z"/><path stroke="#000" stroke-width=".05"/><path d="M343.13 592.98h-15l7.5-13z"/><path d="M348.28 595.95h-25.3l12.65-21.92zm-15-5.95h4.7l-2.35-4.07z" stroke="#000" stroke-width=".05"/><g><use xlink:href="#F" transform="matrix(1,0,0,1,498.2781147067901,591.5360988646346) translate(0 51.66666666666667)"/></g><path d="M202.53 452.27l.77 3.2 1.26 3.05 1.72 2.82 2.15 2.5 2.5 2.15 2.8 1.7 3.06 1.27 3.2.77 3.4.27h6.43v5.96h-6.66l-4.1-.32-4.12-1-3.9-1.6-3.63-2.23-3.2-2.74-2.76-3.2-2.22-3.63-1.62-3.9-1-4.12-.1-1.3h5.98zm299.3-103.08l2.76.65 2.6 1.08 2.44 1.5 2.16 1.83 1.84 2.17 1.5 2.42 1.07 2.62.68 2.76.2 2.6-5.93.47-.17-2.13-.44-1.85-.73-1.76-1-1.63-1.22-1.44-1.45-1.25-1.63-1-1.75-.73-1.86-.44-2.02-.16H223.4l-3.4.27-3.2.76-3.06 1.26-2.8 1.72-2.5 2.15-2.16 2.5-1.72 2.8-1.26 3.05-.77 3.2-.27 3.4v11.3h-5.95v-11.52l.33-4.1 1-4.12 1.6-3.9 2.23-3.62 2.75-3.2 3.23-2.76 3.6-2.22 3.92-1.62 4.1-1 4.12-.3H499.1z" stroke="#000" stroke-width=".05"/><path d="M517.1 370.07h-5.96V367h5.95z"/><path stroke="#000" stroke-width=".05"/><path d="M245.82 472.98l-13 7.5v-15z"/><path d="M251.77 472.98l-21.92 12.66v-25.3zm-15.97 2.35l4.07-2.35-4.07-2.34z" stroke="#000" stroke-width=".05"/><g><use xlink:href="#G" transform="matrix(1,0,0,1,182.24139140190263,387.3622977443835) translate(0 51.66666666666667)"/></g><defs><path d="M52 0l541-1490h220L1361 0h-200l-149-416H398L254 0H52zm404-582h497c-103-290-145-390-251-756-108 377-145 460-246 756" id="H"/><path d="M458 0L52-1490h194c108 439 233 855 324 1313 92-459 221-873 331-1313h216c110 438 234 854 330 1307 92-455 216-869 323-1307h196L1558 0h-221l-256-944c-26-95-50-200-73-331-22 122-44 223-73 331L680 0H458" id="I"/><path d="M657 26c-323 0-524-166-541-416h195c15 169 171 246 346 246 202 0 356-106 356-265 5-203-294-238-475-293-239-73-380-191-380-389 0-252 224-419 512-419 294 0 499 171 508 396H992c-17-145-151-228-328-228-193 0-321 102-321 242 0 156 175 211 284 241l149 41c160 44 422 134 422 412 0 244-197 432-541 432" id="J"/><g id="a"><use transform="matrix(0.0126953125,0,0,0.0126953125,0,0)" xlink:href="#H"/><use transform="matrix(0.0126953125,0,0,0.0126953125,16.4658203125,0)" xlink:href="#I"/><use transform="matrix(0.0126953125,0,0,0.0126953125,42.0849609375,0)" xlink:href="#J"/></g><path d="M783 20c-382 0-661-292-661-764 0-473 279-766 661-766 302 0 548 182 601 489h-190c-42-204-217-313-411-313-268 0-476 208-476 590 0 381 209 588 476 588 195 0 369-110 411-313h190c-52 303-296 489-601 489" id="K"/><path d="M338-1490V0H158v-1490h180" id="L"/><path d="M613 24c-304 0-509-231-509-576 0-350 205-580 509-580 305 0 511 230 511 580 0 345-206 576-511 576zm0-161c226 0 329-195 329-415 0-222-103-419-329-419-223 0-326 196-326 419 0 220 103 415 326 415" id="M"/><path d="M537 14c-226 0-379-139-379-422v-710h180v695c0 172 97 275 253 275 160 0 281-109 281-300v-670h181V0H879v-209C806-46 684 14 537 14" id="N"/><path d="M577 24c-279 0-473-224-473-580 0-354 195-576 474-576 218 0 287 134 324 193h14v-551h180V0H922v-173h-20C865-111 790 24 577 24zm27-161c203 0 314-172 314-421 0-247-108-413-314-413-212 0-317 181-317 413 0 235 108 421 317 421" id="O"/><g id="b"><use transform="matrix(0.0126953125,0,0,0.0126953125,0,0)" xlink:href="#K"/><use transform="matrix(0.0126953125,0,0,0.0126953125,18.9921875,0)" xlink:href="#L"/><use transform="matrix(0.0126953125,0,0,0.0126953125,25.2890625,0)" xlink:href="#M"/><use transform="matrix(0.0126953125,0,0,0.0126953125,40.87890625,0)" xlink:href="#N"/><use transform="matrix(0.0126953125,0,0,0.0126953125,56.2529296875,0)" xlink:href="#O"/></g><path d="M180 0v-1490h908v168H370v486h669v168H370v500h727V0H180" id="P"/><path d="M338-670V0H158v-1118h173l1 207c72-158 192-221 342-221 226 0 378 139 378 422V0H872v-695c0-172-96-275-252-275-161 0-282 109-282 300" id="Q"/><path d="M481 0L54-1118h197c107 314 236 620 325 951 87-331 217-637 324-951h197L670 0H481" id="R"/><path d="M158 0v-1118h180V0H158zm91-1301c-68 0-125-53-125-119s57-119 125-119c69 0 126 53 126 119s-57 119-126 119" id="S"/><path d="M158 0v-1118h174v172h12c41-113 157-188 290-188 26 0 70 2 91 3v181c-11-2-60-10-108-10-161 0-279 109-279 260V0H158" id="T"/><path d="M158 0v-1118h175l1 205c55-151 181-225 313-225 147 0 245 90 285 228 53-141 190-228 352-228 194 0 352 125 352 384V0h-181v-749c0-161-105-225-225-225-151 0-243 103-243 244V0H807v-767c0-124-93-207-219-207-131 0-250 92-250 270V0H158" id="U"/><path d="M628 24c-324 0-524-230-524-574 0-343 198-582 503-582 237 0 487 146 487 559v75H286c9 234 145 362 343 362 132 0 231-58 273-172l174 48C1024-91 857 24 628 24zM287-650h624c-17-190-120-322-304-322-192 0-309 151-320 322" id="V"/><path d="M598-1118v154H368v674c0 100 37 144 132 144 23 0 62-6 92-12L629-6c-37 13-88 20-134 20-193 0-307-107-307-290v-688H20v-154h168v-266h180v266h230" id="W"/><g id="c"><use transform="matrix(0.0126953125,0,0,0.0126953125,0,0)" xlink:href="#P"/><use transform="matrix(0.0126953125,0,0,0.0126953125,15.6279296875,0)" xlink:href="#Q"/><use transform="matrix(0.0126953125,0,0,0.0126953125,30.6083984375,0)" xlink:href="#R"/><use transform="matrix(0.0126953125,0,0,0.0126953125,45.220703125,0)" xlink:href="#S"/><use transform="matrix(0.0126953125,0,0,0.0126953125,51.517578125,0)" xlink:href="#T"/><use transform="matrix(0.0126953125,0,0,0.0126953125,60.8740234375,0)" xlink:href="#M"/><use transform="matrix(0.0126953125,0,0,0.0126953125,76.4638671875,0)" xlink:href="#Q"/><use transform="matrix(0.0126953125,0,0,0.0126953125,91.8251953125,0)" xlink:href="#U"/><use transform="matrix(0.0126953125,0,0,0.0126953125,114.6005859375,0)" xlink:href="#V"/><use transform="matrix(0.0126953125,0,0,0.0126953125,129.7587890625,0)" xlink:href="#Q"/><use transform="matrix(0.0126953125,0,0,0.0126953125,145.1201171875,0)" xlink:href="#W"/></g><path d="M645 0H180v-1490h484c435 0 692 280 692 742 0 466-257 748-711 748zM370-168h263c363 0 539-218 539-580 0-358-176-574-521-574H370v1154" id="X"/><path d="M613 24c-304 0-509-231-509-576 0-350 205-580 509-580 216 0 392 114 453 309l-173 49c-33-115-133-197-280-197-223 0-326 196-326 419 0 220 103 415 326 415 150 0 252-85 285-206l172 49C1010-95 832 24 613 24" id="Y"/><path d="M158 0v-1490h180v865h22l478-493h223L593-638 1096 0H865L456-523 338-412V0H158" id="Z"/><path d="M126 0v-134l627-806v-11H146v-167h839v143L376-178v11h629V0H126" id="aa"/><g id="d"><use transform="matrix(0.0126953125,0,0,0.0126953125,0,0)" xlink:href="#X"/><use transform="matrix(0.0126953125,0,0,0.0126953125,18.763671875,0)" xlink:href="#M"/><use transform="matrix(0.0126953125,0,0,0.0126953125,34.353515625,0)" xlink:href="#Y"/><use transform="matrix(0.0126953125,0,0,0.0126953125,49.20703125,0)" xlink:href="#Z"/><use transform="matrix(0.0126953125,0,0,0.0126953125,62.892578125,0)" xlink:href="#V"/><use transform="matrix(0.0126953125,0,0,0.0126953125,78.05078125,0)" xlink:href="#T"/><use transform="matrix(0.0126953125,0,0,0.0126953125,88.2451171875,0)" xlink:href="#S"/><use transform="matrix(0.0126953125,0,0,0.0126953125,94.5419921875,0)" xlink:href="#aa"/><use transform="matrix(0.0126953125,0,0,0.0126953125,108.51953125,0)" xlink:href="#V"/><use transform="matrix(0.0126953125,0,0,0.0126953125,123.677734375,0)" xlink:href="#O"/></g><g id="e"><use transform="matrix(0.0126953125,0,0,0.0126953125,0,0)" xlink:href="#J"/><use transform="matrix(0.0126953125,0,0,0.0126953125,16.681640625,0)" xlink:href="#V"/><use transform="matrix(0.0126953125,0,0,0.0126953125,31.83984375,0)" xlink:href="#T"/><use transform="matrix(0.0126953125,0,0,0.0126953125,42.0341796875,0)" xlink:href="#R"/><use transform="matrix(0.0126953125,0,0,0.0126953125,56.138671875,0)" xlink:href="#V"/><use transform="matrix(0.0126953125,0,0,0.0126953125,71.296875,0)" xlink:href="#T"/></g><path d="M600 0L52-1490h200c166 485 304 806 458 1336 156-533 285-846 449-1336h202L819 0H600" id="ab"/><g id="f"><use transform="matrix(0.0126953125,0,0,0.0126953125,0,0)" xlink:href="#ab"/><use transform="matrix(0.0126953125,0,0,0.0126953125,16.6181640625,0)" xlink:href="#V"/><use transform="matrix(0.0126953125,0,0,0.0126953125,31.7763671875,0)" xlink:href="#T"/><use transform="matrix(0.0126953125,0,0,0.0126953125,41.1328125,0)" xlink:href="#Y"/><use transform="matrix(0.0126953125,0,0,0.0126953125,55.986328125,0)" xlink:href="#V"/><use transform="matrix(0.0126953125,0,0,0.0126953125,71.14453125,0)" xlink:href="#L"/></g><path d="M180 0v-1490h528c311 0 458 177 458 395 0 191-114 278-244 313v14c139 9 302 137 302 371 0 225-148 397-499 397H180zm190-168h350c232 0 321-102 321-231 0-149-120-277-311-277H370v508zm0-668h328c160 0 286-101 286-255 0-129-87-231-280-231H370v486" id="ac"/><path d="M471 26C259 26 90-98 90-318c0-256 228-303 435-329 202-27 287-16 287-108 0-139-79-219-234-219-161 0-248 86-283 164l-173-57c86-203 278-265 451-265 150 0 419 46 419 395V0H815v-152h-12C765-73 660 26 471 26zm31-159c199 0 310-134 310-271v-155c-30 35-226 55-295 64-131 17-246 59-246 186 0 116 97 176 231 176" id="ad"/><g id="g"><use transform="matrix(0.0126953125,0,0,0.0126953125,0,0)" xlink:href="#ac"/><use transform="matrix(0.0126953125,0,0,0.0126953125,17.01171875,0)" xlink:href="#ad"/><use transform="matrix(0.0126953125,0,0,0.0126953125,31.611328125,0)" xlink:href="#Y"/><use transform="matrix(0.0126953125,0,0,0.0126953125,46.46484375,0)" xlink:href="#Z"/><use transform="matrix(0.0126953125,0,0,0.0126953125,60.150390625,0)" xlink:href="#V"/><use transform="matrix(0.0126953125,0,0,0.0126953125,75.30859375,0)" xlink:href="#Q"/><use transform="matrix(0.0126953125,0,0,0.0126953125,90.669921875,0)" xlink:href="#O"/></g><path d="M140 405l46-156c120 36 205 19 263-150l32-93L54-1118h197c107 313 237 620 324 950 87-331 219-637 326-950h196L606 167c-68 178-176 259-334 259-64 0-113-12-132-21" id="ae"/><path d="M538 24C308 24 148-78 108-271l171-41c32 123 123 178 257 178 156 0 256-77 256-169 0-77-54-128-164-154l-186-44c-203-48-300-148-300-305 0-192 176-326 414-326 230 0 351 112 402 269l-163 42c-31-80-94-158-238-158-133 0-233 69-233 162 0 83 57 129 188 160l169 40c203 48 298 149 298 302 0 196-179 339-441 339" id="af"/><g id="h"><use transform="matrix(0.0126953125,0,0,0.0126953125,0,0)" xlink:href="#J"/><use transform="matrix(0.0126953125,0,0,0.0126953125,16.681640625,0)" xlink:href="#ae"/><use transform="matrix(0.0126953125,0,0,0.0126953125,31.2939453125,0)" xlink:href="#af"/><use transform="matrix(0.0126953125,0,0,0.0126953125,45.017578125,0)" xlink:href="#W"/><use transform="matrix(0.0126953125,0,0,0.0126953125,53.26953125,0)" xlink:href="#V"/><use transform="matrix(0.0126953125,0,0,0.0126953125,68.427734375,0)" xlink:href="#U"/></g><path d="M180 0v-1490h510c348 0 508 194 508 460 0 198-88 351-276 417L1256 0h-220L726-579c-117 2-238 0-356 1V0H180zm190-747h312c235 0 327-108 327-283 0-177-92-293-329-293H370v576" id="ag"/><path d="M784 20c-382 0-662-292-662-764 0-473 280-766 662-766s660 293 660 766c0 472-278 764-660 764zm0-176c266 0 475-207 475-588 0-383-209-590-475-590-268 0-477 208-477 590 0 380 209 588 477 588" id="ah"/><path d="M180 0v-1490h224l606 953c40 63 108 177 176 312-27-437-7-821-13-1265h190V0h-226C860-448 622-778 356-1262c27 476 11 792 15 1262H180" id="ai"/><g id="i"><use transform="matrix(0.0126953125,0,0,0.0126953125,0,0)" xlink:href="#K"/><use transform="matrix(0.0126953125,0,0,0.0126953125,18.9921875,0)" xlink:href="#ag"/><use transform="matrix(0.0126953125,0,0,0.0126953125,35.724609375,0)" xlink:href="#ah"/><use transform="matrix(0.0126953125,0,0,0.0126953125,55.60546875,0)" xlink:href="#ai"/></g><path d="M545 20c-263 0-445-160-445-446v-80h190v80c0 182 102 279 255 279 152 0 254-97 254-279v-1064h190v1064c0 286-181 446-444 446" id="aj"/><path d="M677 24c-213 0-288-135-325-197h-20V0H158v-1490h180v551h14c37-59 106-193 324-193 279 0 474 222 474 576 0 356-194 580-473 580zm-27-161c209 0 317-186 317-421 0-232-105-413-317-413-206 0-314 166-314 413 0 249 111 421 314 421" id="ak"/><g id="j"><use transform="matrix(0.0126953125,0,0,0.0126953125,0,0)" xlink:href="#aj"/><use transform="matrix(0.0126953125,0,0,0.0126953125,14.8408203125,0)" xlink:href="#M"/><use transform="matrix(0.0126953125,0,0,0.0126953125,30.4306640625,0)" xlink:href="#ak"/></g><g id="k"><use transform="matrix(0.0126953125,0,0,0.0126953125,0,0)" xlink:href="#K"/><use transform="matrix(0.0126953125,0,0,0.0126953125,18.9921875,0)" xlink:href="#M"/><use transform="matrix(0.0126953125,0,0,0.0126953125,34.58203125,0)" xlink:href="#Q"/><use transform="matrix(0.0126953125,0,0,0.0126953125,49.943359375,0)" xlink:href="#W"/><use transform="matrix(0.0126953125,0,0,0.0126953125,58.576171875,0)" xlink:href="#ad"/><use transform="matrix(0.0126953125,0,0,0.0126953125,73.17578125,0)" xlink:href="#S"/><use transform="matrix(0.0126953125,0,0,0.0126953125,79.47265625,0)" xlink:href="#Q"/><use transform="matrix(0.0126953125,0,0,0.0126953125,94.833984375,0)" xlink:href="#V"/><use transform="matrix(0.0126953125,0,0,0.0126953125,109.9921875,0)" xlink:href="#T"/></g><path d="M65 0l393-574-370-544h210c88 136 192 297 267 435 67-142 176-302 264-435h206L661-564 1053 0H844c-94-144-206-310-287-458C484-308 366-142 273 0H65" id="al"/><g id="l"><use transform="matrix(0.0126953125,0,0,0.0126953125,0,0)" xlink:href="#P"/><use transform="matrix(0.0126953125,0,0,0.0126953125,15.6279296875,0)" xlink:href="#al"/><use transform="matrix(0.0126953125,0,0,0.0126953125,30.3291015625,0)" xlink:href="#W"/><use transform="matrix(0.0126953125,0,0,0.0126953125,38.5810546875,0)" xlink:href="#V"/><use transform="matrix(0.0126953125,0,0,0.0126953125,53.7392578125,0)" xlink:href="#T"/><use transform="matrix(0.0126953125,0,0,0.0126953125,63.93359375,0)" xlink:href="#Q"/><use transform="matrix(0.0126953125,0,0,0.0126953125,79.294921875,0)" xlink:href="#ad"/><use transform="matrix(0.0126953125,0,0,0.0126953125,93.89453125,0)" xlink:href="#L"/></g><g id="m"><use transform="matrix(0.0126953125,0,0,0.0126953125,0,0)" xlink:href="#J"/><use transform="matrix(0.0126953125,0,0,0.0126953125,16.681640625,0)" xlink:href="#W"/><use transform="matrix(0.0126953125,0,0,0.0126953125,24.93359375,0)" xlink:href="#M"/><use transform="matrix(0.0126953125,0,0,0.0126953125,40.5234375,0)" xlink:href="#Y"/><use transform="matrix(0.0126953125,0,0,0.0126953125,55.376953125,0)" xlink:href="#Z"/></g><path d="M180 0v-1490h270l367 940c28 72 75 218 110 339 35-117 81-264 110-339l362-940h271V0h-187c2-448-5-837 7-1287-157 497-311 829-483 1287H842C666-458 514-784 354-1284c12 438 5 843 7 1284H180" id="am"/><g id="n"><use transform="matrix(0.0126953125,0,0,0.0126953125,0,0)" xlink:href="#am"/><use transform="matrix(0.0126953125,0,0,0.0126953125,23.486328125,0)" xlink:href="#ad"/><use transform="matrix(0.0126953125,0,0,0.0126953125,38.0859375,0)" xlink:href="#T"/><use transform="matrix(0.0126953125,0,0,0.0126953125,48.2802734375,0)" xlink:href="#Z"/><use transform="matrix(0.0126953125,0,0,0.0126953125,61.9658203125,0)" xlink:href="#V"/><use transform="matrix(0.0126953125,0,0,0.0126953125,77.1240234375,0)" xlink:href="#W"/></g><path d="M180 0v-1490h510c348 0 508 209 508 474 0 266-160 477-507 477H370V0H180zm190-706h312c236 0 327-133 327-310 0-176-91-307-329-307H370v617" id="an"/><path d="M370-1490V0H180v-1490h190" id="ao"/><g id="o"><use transform="matrix(0.0126953125,0,0,0.0126953125,0,0)" xlink:href="#H"/><use transform="matrix(0.0126953125,0,0,0.0126953125,17.9384765625,0)" xlink:href="#an"/><use transform="matrix(0.0126953125,0,0,0.0126953125,34.5439453125,0)" xlink:href="#ao"/></g><path fill="#333" d="M749-1490V0H444v-1221h-10L93-980v-279l329-231h327" id="ap"/><use transform="matrix(0.026041666666666668,0,0,0.026041666666666668,0,0)" xlink:href="#ap" id="p"/><path d="M180 0v-1490h901v168H370v510h643v168H370V0H180" id="aq"/><g id="q"><use transform="matrix(0.0126953125,0,0,0.0126953125,0,0)" xlink:href="#aq"/><use transform="matrix(0.0126953125,0,0,0.0126953125,14.5869140625,0)" xlink:href="#T"/><use transform="matrix(0.0126953125,0,0,0.0126953125,23.943359375,0)" xlink:href="#M"/><use transform="matrix(0.0126953125,0,0,0.0126953125,39.533203125,0)" xlink:href="#Q"/><use transform="matrix(0.0126953125,0,0,0.0126953125,54.89453125,0)" xlink:href="#W"/><use transform="matrix(0.0126953125,0,0,0.0126953125,63.146484375,0)" xlink:href="#V"/><use transform="matrix(0.0126953125,0,0,0.0126953125,78.3046875,0)" xlink:href="#Q"/><use transform="matrix(0.0126953125,0,0,0.0126953125,93.666015625,0)" xlink:href="#O"/></g><g id="r"><use transform="matrix(0.0126953125,0,0,0.0126953125,0,0)" xlink:href="#ai"/><use transform="matrix(0.0126953125,0,0,0.0126953125,19.5888671875,0)" xlink:href="#V"/><use transform="matrix(0.0126953125,0,0,0.0126953125,34.1630859375,0)" xlink:href="#al"/><use transform="matrix(0.0126953125,0,0,0.0126953125,48.8642578125,0)" xlink:href="#W"/><use transform="matrix(0.0126953125,0,0,0.0126953125,57.3701171875,0)" xlink:href="#aj"/><use transform="matrix(0.0126953125,0,0,0.0126953125,72.2109375,0)" xlink:href="#J"/></g><path d="M593-100v-404H195v-159h398v-403h169v403h398v159H762v404H593" id="ar"/><use transform="matrix(0.0126953125,0,0,0.0126953125,0,0)" xlink:href="#ar" id="s"/><path d="M130 0v-134l666-991c45-67 96-135 147-202-269 9-546 3-821 5v-168h1036v136L502-379c-49 72-103 145-157 216 268-9 546-3 821-5V0H130" id="as"/><g id="t"><use transform="matrix(0.0126953125,0,0,0.0126953125,0,0)" xlink:href="#as"/><use transform="matrix(0.0126953125,0,0,0.0126953125,16.3515625,0)" xlink:href="#N"/><use transform="matrix(0.0126953125,0,0,0.0126953125,31.7255859375,0)" xlink:href="#af"/><use transform="matrix(0.0126953125,0,0,0.0126953125,45.44921875,0)" xlink:href="#W"/><use transform="matrix(0.0126953125,0,0,0.0126953125,54.08203125,0)" xlink:href="#ad"/><use transform="matrix(0.0126953125,0,0,0.0126953125,68.681640625,0)" xlink:href="#Q"/><use transform="matrix(0.0126953125,0,0,0.0126953125,84.04296875,0)" xlink:href="#O"/></g><g id="u"><use transform="matrix(0.0126953125,0,0,0.0126953125,0,0)" xlink:href="#H"/><use transform="matrix(0.0126953125,0,0,0.0126953125,17.9384765625,0)" xlink:href="#an"/><use transform="matrix(0.0126953125,0,0,0.0126953125,34.5439453125,0)" xlink:href="#an"/></g><path fill="#333" d="M101-265v-241l623-984h383v979h186v246h-186V0H814v-265H101zm719-246v-643h-12L409-523v12h411" id="at"/><use transform="matrix(0.026041666666666668,0,0,0.026041666666666668,0,0)" xlink:href="#at" id="w"/><path d="M157-1118h181V80c1 225-123 350-364 338V252c126 9 184-48 183-172v-1198zm91-183c-68 0-125-53-125-119s57-119 125-119c69 0 126 53 126 119s-57 119-126 119" id="au"/><path d="M611 442c-248 0-391-105-460-228l146-94c47 65 117 165 314 165 178 0 307-82 307-266v-224h-17C863-141 792-18 576-18c-268 0-472-195-472-546 0-346 197-568 476-568 216 0 288 133 326 193h17v-179h175V29c0 289-215 413-487 413zm-5-620c203 0 314-146 314-390 0-237-108-403-314-403-213 0-319 180-319 403 0 230 109 390 319 390" id="av"/><g id="x"><use transform="matrix(0.0126953125,0,0,0.0126953125,0,0)" xlink:href="#X"/><use transform="matrix(0.0126953125,0,0,0.0126953125,18.763671875,0)" xlink:href="#au"/><use transform="matrix(0.0126953125,0,0,0.0126953125,25.060546875,0)" xlink:href="#ad"/><use transform="matrix(0.0126953125,0,0,0.0126953125,39.66015625,0)" xlink:href="#Q"/><use transform="matrix(0.0126953125,0,0,0.0126953125,55.021484375,0)" xlink:href="#av"/><use transform="matrix(0.0126953125,0,0,0.0126953125,70.966796875,0)" xlink:href="#M"/></g><g id="y"><use transform="matrix(0.0126953125,0,0,0.0126953125,0,0)" xlink:href="#J"/><use transform="matrix(0.0126953125,0,0,0.0126953125,16.681640625,0)" xlink:href="#W"/><use transform="matrix(0.0126953125,0,0,0.0126953125,24.93359375,0)" xlink:href="#M"/><use transform="matrix(0.0126953125,0,0,0.0126953125,40.5234375,0)" xlink:href="#Y"/><use transform="matrix(0.0126953125,0,0,0.0126953125,55.376953125,0)" xlink:href="#Z"/></g><path d="M763 24c-353 0-583-224-583-531v-983h190v968c0 214 149 370 393 370 243 0 391-156 391-370v-968h190v983c0 307-230 531-581 531" id="aw"/><g id="z"><use transform="matrix(0.0126953125,0,0,0.0126953125,0,0)" xlink:href="#K"/><use transform="matrix(0.0126953125,0,0,0.0126953125,18.9921875,0)" xlink:href="#ag"/><use transform="matrix(0.0126953125,0,0,0.0126953125,35.724609375,0)" xlink:href="#aw"/><use transform="matrix(0.0126953125,0,0,0.0126953125,55.072265625,0)" xlink:href="#X"/></g><g id="A"><use transform="matrix(0.0126953125,0,0,0.0126953125,0,0)" xlink:href="#H"/><use transform="matrix(0.0126953125,0,0,0.0126953125,17.9384765625,0)" xlink:href="#an"/><use transform="matrix(0.0126953125,0,0,0.0126953125,34.5439453125,0)" xlink:href="#an"/></g><g id="B"><use transform="matrix(0.0126953125,0,0,0.0126953125,0,0)" xlink:href="#am"/><use transform="matrix(0.0126953125,0,0,0.0126953125,23.486328125,0)" xlink:href="#ad"/><use transform="matrix(0.0126953125,0,0,0.0126953125,38.0859375,0)" xlink:href="#T"/><use transform="matrix(0.0126953125,0,0,0.0126953125,48.2802734375,0)" xlink:href="#S"/><use transform="matrix(0.0126953125,0,0,0.0126953125,54.5771484375,0)" xlink:href="#ad"/><use transform="matrix(0.0126953125,0,0,0.0126953125,69.1767578125,0)" xlink:href="#X"/><use transform="matrix(0.0126953125,0,0,0.0126953125,87.9404296875,0)" xlink:href="#ac"/></g><g id="C"><use transform="matrix(0.0126953125,0,0,0.0126953125,0,0)" xlink:href="#K"/><use transform="matrix(0.0126953125,0,0,0.0126953125,18.9921875,0)" xlink:href="#M"/><use transform="matrix(0.0126953125,0,0,0.0126953125,34.58203125,0)" xlink:href="#Q"/><use transform="matrix(0.0126953125,0,0,0.0126953125,49.943359375,0)" xlink:href="#W"/><use transform="matrix(0.0126953125,0,0,0.0126953125,58.576171875,0)" xlink:href="#ad"/><use transform="matrix(0.0126953125,0,0,0.0126953125,73.17578125,0)" xlink:href="#S"/><use transform="matrix(0.0126953125,0,0,0.0126953125,79.47265625,0)" xlink:href="#Q"/><use transform="matrix(0.0126953125,0,0,0.0126953125,94.833984375,0)" xlink:href="#V"/><use transform="matrix(0.0126953125,0,0,0.0126953125,109.9921875,0)" xlink:href="#T"/></g><g id="D"><use transform="matrix(0.0126953125,0,0,0.0126953125,0,0)" xlink:href="#aq"/><use transform="matrix(0.0126953125,0,0,0.0126953125,15.3486328125,0)" xlink:href="#S"/><use transform="matrix(0.0126953125,0,0,0.0126953125,21.6455078125,0)" xlink:href="#T"/><use transform="matrix(0.0126953125,0,0,0.0126953125,31.001953125,0)" xlink:href="#V"/><use transform="matrix(0.0126953125,0,0,0.0126953125,46.16015625,0)" xlink:href="#ak"/><use transform="matrix(0.0126953125,0,0,0.0126953125,62.333984375,0)" xlink:href="#ad"/><use transform="matrix(0.0126953125,0,0,0.0126953125,76.93359375,0)" xlink:href="#af"/><use transform="matrix(0.0126953125,0,0,0.0126953125,90.6572265625,0)" xlink:href="#V"/></g><path fill="#333" d="M659 20C335 20 103-159 99-418h307c5 112 113 185 254 185 147 0 250-83 250-204 0-123-105-209-278-209H494v-227h138c145 0 246-81 246-200 0-115-87-193-216-193-130 0-237 73-240 189H128c4-255 233-433 536-433 306 0 510 185 510 418 0 167-114 285-279 317v11c217 29 333 162 333 347 0 254-237 437-569 437" id="ax"/><use transform="matrix(0.026041666666666668,0,0,0.026041666666666668,0,0)" xlink:href="#ax" id="E"/><path fill="#333" d="M124 0v-220l528-495c135-132 210-216 210-336 0-133-98-215-231-215-139 0-229 88-229 233H110c0-290 214-477 523-477 315 0 525 182 525 440 0 167-80 305-385 586L548-262v11h630V0H124" id="ay"/><use transform="matrix(0.026041666666666668,0,0,0.026041666666666668,0,0)" xlink:href="#ay" id="F"/><path fill="#333" d="M664 20c-306 0-529-183-535-438h297c6 117 110 196 238 196 149 0 255-108 255-266 0-159-108-270-261-270-89 0-178 39-224 98l-274-48 72-782h901v252H485l-39 377h8c53-72 165-124 294-124 269 0 467 204 467 490 0 300-224 515-551 515" id="az"/><use transform="matrix(0.026041666666666668,0,0,0.026041666666666668,0,0)" xlink:href="#az" id="G"/></defs></g></svg>